<svg xmlns="http://www.w3.org/2000/svg" xmlns:xlink="http://www.w3.org/1999/xlink" width="16" height="16" viewBox="0 0 16 16">
  <defs>
    <clipPath id="clipPath">
      <rect id="Bounding_box" data-name="Bounding box" width="16" height="16" transform="translate(312 95)" fill="#d9d9d9"/>
    </clipPath>
  </defs>
  <g id="Bounding_box-2" data-name="Bounding box" transform="translate(-312 -95)" clipPath="url(#clipPath)">
    <path id="search" d="M11.067,12l-4.2-4.2a3.972,3.972,0,0,1-1.15.633,4.063,4.063,0,0,1-1.383.233A4.183,4.183,0,0,1,1.258,7.408,4.183,4.183,0,0,1,0,4.333,4.183,4.183,0,0,1,1.258,1.258,4.183,4.183,0,0,1,4.333,0,4.183,4.183,0,0,1,7.408,1.258,4.183,4.183,0,0,1,8.667,4.333a4.063,4.063,0,0,1-.233,1.383A3.973,3.973,0,0,1,7.8,6.867l4.2,4.2ZM4.333,7.333a2.893,2.893,0,0,0,2.125-.875,2.893,2.893,0,0,0,.875-2.125,2.893,2.893,0,0,0-.875-2.125,2.893,2.893,0,0,0-2.125-.875,2.893,2.893,0,0,0-2.125.875,2.893,2.893,0,0,0-.875,2.125,2.893,2.893,0,0,0,.875,2.125A2.893,2.893,0,0,0,4.333,7.333Z" transform="translate(314 97)"/>
  </g>
</svg>
