<svg xmlns="http://www.w3.org/2000/svg" width="20" height="18.35" viewBox="0 0 20 18.35">
  <path id="Path_13" data-name="Path 13" d="M10,19,8.55,17.7q-2.525-2.275-4.175-3.925A27.658,27.658,0,0,1,1.75,10.813,9.412,9.412,0,0,1,.387,8.4,6.725,6.725,0,0,1,0,6.15,5.382,5.382,0,0,1,5.5.65a5.769,5.769,0,0,1,2.475.55A5.929,5.929,0,0,1,10,2.75,5.93,5.93,0,0,1,12.025,1.2,5.769,5.769,0,0,1,14.5.65,5.382,5.382,0,0,1,20,6.15a6.726,6.726,0,0,1-.388,2.25,9.411,9.411,0,0,1-1.362,2.413,27.657,27.657,0,0,1-2.625,2.963q-1.65,1.65-4.175,3.925Zm0-2.7q2.4-2.15,3.95-3.688A31.166,31.166,0,0,0,16.4,9.938a8.358,8.358,0,0,0,1.25-2.025A4.777,4.777,0,0,0,18,6.15a3.418,3.418,0,0,0-3.5-3.5,3.86,3.86,0,0,0-2.175.663A3.407,3.407,0,0,0,10.95,5H9.05A3.407,3.407,0,0,0,7.675,3.313,3.86,3.86,0,0,0,5.5,2.65,3.418,3.418,0,0,0,2,6.15a4.777,4.777,0,0,0,.35,1.762A8.359,8.359,0,0,0,3.6,9.938a31.162,31.162,0,0,0,2.45,2.675Q7.6,14.15,10,16.3Z" transform="translate(0 -0.65)" fill="#eb1700"/>
</svg>
