<svg xmlns="http://www.w3.org/2000/svg" width="13.159" height="13.455" viewBox="0 0 13.159 13.455">
  <path id="Path_10" data-name="Path 10" d="M7.505,13.583a6.4,6.4,0,0,1-2.568-.518,6.606,6.606,0,0,1-3.5-3.5A6.4,6.4,0,0,1,.922,7,6.4,6.4,0,0,1,1.44,4.432a6.606,6.606,0,0,1,3.5-3.5A6.4,6.4,0,0,1,7.505.416a6.265,6.265,0,0,1,2.862.661,6.77,6.77,0,0,1,2.221,1.775V.128h1.083V4.359H9.441V3.275h2.117a5.471,5.471,0,0,0-1.795-1.3A5.381,5.381,0,0,0,7.505,1.5,5.3,5.3,0,0,0,3.62,3.114,5.3,5.3,0,0,0,2.005,7,5.3,5.3,0,0,0,3.62,10.885,5.3,5.3,0,0,0,7.505,12.5a5.264,5.264,0,0,0,3.877-1.619A5.4,5.4,0,0,0,13.013,7H14.08a6.323,6.323,0,0,1-1.91,4.666A6.351,6.351,0,0,1,7.505,13.583ZM9.733,9.689,6.964,6.92V3H8.047V6.455l2.46,2.46Z" transform="translate(-0.922 -0.128)" fill="#fff"/>
</svg>
