<svg xmlns="http://www.w3.org/2000/svg" width="19.012" height="20" viewBox="0 0 19.012 20">
  <path id="Path_14" data-name="Path 14" d="M3,20V15.7A9.233,9.233,0,0,1,.788,12.663,8.771,8.771,0,0,1,0,9,8.679,8.679,0,0,1,2.625,2.625,8.679,8.679,0,0,1,9,0a8.892,8.892,0,0,1,5.538,1.837,8.358,8.358,0,0,1,3.137,4.788l1.3,5.125a.947.947,0,0,1-.175.863A.961.961,0,0,1,18,13H16v3a2.006,2.006,0,0,1-2,2H12v2H10V16h4V11h2.7l-.95-3.875a6.533,6.533,0,0,0-2.45-3.7A6.915,6.915,0,0,0,9,2,6.787,6.787,0,0,0,4.05,4.025,6.663,6.663,0,0,0,2,8.95a6.819,6.819,0,0,0,.612,2.85A7.5,7.5,0,0,0,4.35,14.2l.65.6V20Zm5-7h2l.15-1.25a2.088,2.088,0,0,0,.363-.175,1.565,1.565,0,0,0,.288-.225l1.15.5,1-1.7-1-.75a1.625,1.625,0,0,0,0-.8l1-.75-1-1.7-1.15.5a1.562,1.562,0,0,0-.288-.225,2.09,2.09,0,0,0-.363-.175L10,5H8L7.85,6.25a2.09,2.09,0,0,0-.362.175A1.562,1.562,0,0,0,7.2,6.65l-1.15-.5-1,1.7,1,.75a1.625,1.625,0,0,0,0,.8l-1,.75,1,1.7,1.15-.5a1.565,1.565,0,0,0,.288.225,2.088,2.088,0,0,0,.362.175Zm1-2.5A1.5,1.5,0,0,1,7.938,7.938a1.5,1.5,0,0,1,2.125,2.125A1.446,1.446,0,0,1,9,10.5Z" fill="#1c1b1f"/>
</svg>
