<svg xmlns="http://www.w3.org/2000/svg" width="21" height="20" viewBox="0 0 21 20">
  <g id="Group_26" data-name="Group 26" transform="translate(-2 -1)">
    <path id="Path_16" data-name="Path 16" d="M18,21H7V8l7-7,1.25,1.25a1.313,1.313,0,0,1,.288.475,1.636,1.636,0,0,1,.112.575v.35L14.55,8H21a2.051,2.051,0,0,1,2,2v2a1.551,1.551,0,0,1-.05.375q-.05.2-.1.375l-3,7.05a2.02,2.02,0,0,1-.75.85A1.953,1.953,0,0,1,18,21ZM9,19h9l3-7V10H12l1.35-5.5L9,8.85ZM7,8v2H4v9H7v2H2V8Z" fill="#1c1b1f"/>
  </g>
</svg>
