<svg xmlns="http://www.w3.org/2000/svg" width="19.167" height="13.279" viewBox="0 0 19.167 13.279">
  <path id="Path_8" data-name="Path 8" d="M1.61,13.695a1.15,1.15,0,0,1-.843-.352A1.15,1.15,0,0,1,.414,12.5h3.34a1.327,1.327,0,0,1-1.34-1.34v-9.4A1.294,1.294,0,0,1,2.8.8,1.294,1.294,0,0,1,3.754.416H16.241A1.294,1.294,0,0,1,17.192.8a1.294,1.294,0,0,1,.389.951v9.4a1.327,1.327,0,0,1-1.34,1.34h3.34a1.2,1.2,0,0,1-1.2,1.2Zm8.383-.542a.579.579,0,0,0,.419-.17.558.558,0,0,0,.175-.415.579.579,0,0,0-.17-.419A.557.557,0,0,0,10,11.974a.58.58,0,0,0-.419.17.558.558,0,0,0-.175.415.58.58,0,0,0,.17.419A.558.558,0,0,0,9.993,13.153ZM3.754,11.416H16.241a.276.276,0,0,0,.257-.256v-9.4a.276.276,0,0,0-.257-.256H3.754a.276.276,0,0,0-.256.256v9.4a.276.276,0,0,0,.256.256Z" transform="translate(-0.414 -0.416)" fill="#fff"/>
</svg>
