<svg xmlns="http://www.w3.org/2000/svg" width="14.368" height="15.167" viewBox="0 0 14.368 15.167">
  <path id="Path_9" data-name="Path 9" d="M6.261,15.584l-.442-2.247a7.837,7.837,0,0,1-1.1-.5,5.327,5.327,0,0,1-1-.7l-2.163.723L.313,10.709l1.7-1.5q-.05-.29-.083-.592A5.666,5.666,0,0,1,1.9,8.008a5.482,5.482,0,0,1,.033-.6q.033-.3.083-.62l-1.7-1.5,1.236-2.13L3.7,3.877a6.033,6.033,0,0,1,1.008-.708,7.514,7.514,0,0,1,1.1-.506L6.261.417H8.732l.442,2.255a8.072,8.072,0,0,1,1.1.506,5.886,5.886,0,0,1,.988.7l2.188-.715,1.235,2.13L12.949,6.811a4.778,4.778,0,0,1,.091.6q.025.29.025.593t-.029.585q-.029.29-.079.62l1.716,1.5-1.236,2.146-2.179-.731a6.088,6.088,0,0,1-1,.707,7.021,7.021,0,0,1-1.087.5l-.442,2.255ZM7.122,14.5h.742l.4-2.087a4.576,4.576,0,0,0,1.447-.526,4.485,4.485,0,0,0,1.2-1.008l2.008.683.383-.625-1.6-1.4a6.025,6.025,0,0,0,.194-.76A4.261,4.261,0,0,0,11.965,8a4.176,4.176,0,0,0-.069-.774,5.805,5.805,0,0,0-.194-.744l1.615-1.42-.383-.625L10.9,5.112a4.163,4.163,0,0,0-1.179-.988A4.306,4.306,0,0,0,8.26,3.587L7.872,1.5H7.114l-.38,2.079A4.332,4.332,0,0,0,4.067,5.112L2.059,4.438l-.383.625,1.591,1.4A4.509,4.509,0,0,0,3,8.008,4.263,4.263,0,0,0,3.07,8.8a5.444,5.444,0,0,0,.19.732l-1.583,1.4.383.625,2-.667a4.377,4.377,0,0,0,1.192,1,4.65,4.65,0,0,0,1.475.53Zm.343-3.917A2.564,2.564,0,0,0,10.048,8,2.564,2.564,0,0,0,7.465,5.417,2.57,2.57,0,0,0,4.881,8a2.57,2.57,0,0,0,2.583,2.583Z" transform="translate(-0.313 -0.417)" fill="#fff"/>
</svg>
