<svg xmlns="http://www.w3.org/2000/svg" width="16.667" height="11.167" viewBox="0 0 16.667 11.167">
  <path id="Path_6" data-name="Path 6" d="M6.27,11.583V10.5H7.553a.247.247,0,0,0,.256-.256V1.756A.247.247,0,0,0,7.553,1.5H6.27V.416H7.553A1.332,1.332,0,0,1,8.539.77a1.332,1.332,0,0,1,.354.986v8.487a1.228,1.228,0,0,1-1.34,1.34Zm5.623,0a1.228,1.228,0,0,1-1.34-1.34V1.756A1.332,1.332,0,0,1,10.908.77a1.332,1.332,0,0,1,.986-.354h3.848a1.332,1.332,0,0,1,.986.354,1.332,1.332,0,0,1,.354.986v8.487a1.228,1.228,0,0,1-1.34,1.34Zm0-1.083h3.848A.247.247,0,0,0,16,10.243V1.756a.247.247,0,0,0-.257-.256H11.893a.247.247,0,0,0-.256.256v8.487a.247.247,0,0,0,.256.256Zm-8.6-1.869-.772-.761L3.876,6.541H.414V5.458H3.876L2.522,4.148l.764-.772L5.949,6Z" transform="translate(-0.414 -0.416)" fill="#fff"/>
</svg>
